<?xml version="1.0" standalone="no"?>
<!DOCTYPE svg PUBLIC "-//W3C//DTD SVG 1.1//EN" "http://www.w3.org/Graphics/SVG/1.1/DTD/svg11.dtd">
<svg xmlns="http://www.w3.org/2000/svg">
<metadata>Inspark</metadata>
<defs>
<font id="insparkicons" horiz-adv-x="1000" >
<font-face font-family="insparkicons" font-weight="400" font-stretch="normal" units-per-em="1000" ascent="850" descent="-150" />
<missing-glyph horiz-adv-x="1000" />
<glyph glyph-name="account" unicode="&#xe800;" d="M500 683a167 167 0 1 0 0-333 167 167 0 0 0 0 333z m0-416c184 0 333-75 333-167v-83h-666v83c0 92 149 167 333 167z" horiz-adv-x="1000" />

<glyph glyph-name="activity-zone" unicode="&#xe801;" d="M208-67a121 121 0 0 0-88 37 121 121 0 0 0-37 88c0 27 8 52 24 73a129 129 0 0 0 60 45v348a129 129 0 0 0-60 45 119 119 0 0 0-24 73c0 34 13 64 37 88a121 121 0 0 0 88 37c27 0 52-8 73-24 21-15 36-35 45-60h348c8 25 23 45 44 60a120 120 0 0 0 74 24c34 0 64-12 88-37s37-54 37-88a120 120 0 0 0-24-74 122 122 0 0 0-60-44v-348c25-9 45-24 60-45 16-21 24-46 24-73 0-34-12-64-37-88a121 121 0 0 0-88-37c-27 0-52 8-73 24a129 129 0 0 0-45 60h-348a129 129 0 0 0-45-60 119 119 0 0 0-73-24z m118 167h348a122 122 0 0 0 76 76v348a122 122 0 0 0-76 76h-348a122 122 0 0 0-76-76v-348a122 122 0 0 0 76-76z" horiz-adv-x="1000" />

<glyph glyph-name="apps" unicode="&#xe802;" d="M667 17h166v166h-166m0 84h166v166h-166m-250 84h166v166h-166m250-166h166v166h-166m-250-416h166v166h-166m-250-166h166v166h-166m0-416h166v166h-166m250-166h166v166h-166m-250 334h166v166h-166v-166z" horiz-adv-x="1000" />

<glyph glyph-name="arrow-range" unicode="&#xe803;" d="M292 142l-209 208 209 208 58-59-107-107h513l-107 107 59 59 209-208-209-208-59 58 107 108h-513l107-108-58-58z" horiz-adv-x="1000" />

<glyph glyph-name="baseline-admin-panel-settings" unicode="&#xe804;" d="M708 392c15 0 28-2 42-4v201l-312 136-313-136v-205c0-189 133-366 313-409 22 5 45 13 66 23-29 41-46 90-46 144 0 138 112 250 250 250z m0-84c-92 0-166-74-166-166s74-167 166-167 167 75 167 167-75 166-167 166z m0-57c26 0 47-21 47-47 0-25-21-46-47-46-25 0-46 21-46 46 0 26 21 47 46 47z m0-224c-38 0-72 19-93 49 2 30 63 45 93 45 31 0 92-15 94-45-21-30-55-49-94-49z" horiz-adv-x="1000" />

<glyph glyph-name="baseline-brush" unicode="&#xe805;" d="M292 267c-69 0-125-56-125-125 0-55-49-84-84-84 39-50 104-83 167-83 92 0 167 75 167 167 0 69-56 125-125 125z m571 390l-56 56a42 42 0 0 1-59 0l-373-373 115-115 373 373a42 42 0 0 1 0 59z" horiz-adv-x="1000" />

<glyph glyph-name="baseline-edit-attributes" unicode="&#xe806;" d="M735 558h-470c-100 0-182-93-182-208s82-208 182-208h470c100 0 182 93 182 208s-82 208-182 208z m-433-310l-107 107 29 29 78-78 146 147 30-30-176-175z" horiz-adv-x="1000" />

<glyph glyph-name="baseline-folder-special" unicode="&#xe807;" d="M833 600h-333l-83 83h-250c-46 0-84-37-84-83v-500c0-46 38-83 84-83h666c46 0 84 37 84 83v417c0 46-38 83-84 83z m-85-458l-123 71-122-71 32 138-108 94 142 12 56 131 56-131 142-12-108-94 33-138z" horiz-adv-x="1000" />

<glyph glyph-name="baseline-key" unicode="&#xe808;" d="M875 433h-348a250 250 0 0 1-235 167c-138 0-250-112-250-250s112-250 250-250a250 250 0 0 1 235 167h15l83-84 83 84 84-84 166 169-83 81z m-583-208c-69 0-125 56-125 125s56 125 125 125 125-56 125-125-57-125-125-125z" horiz-adv-x="1000" />

<glyph glyph-name="baseline-lock" unicode="&#xe809;" d="M750 517h-42v83c0 115-93 208-208 208s-208-93-208-208v-83h-42c-46 0-83-38-83-84v-416c0-46 37-84 83-84h500c46 0 83 38 83 84v416c0 46-37 84-83 84z m-250-375c-46 0-83 37-83 83s37 83 83 83 83-37 83-83-37-83-83-83z m129 375h-258v83c0 71 58 129 129 129 71 0 129-58 129-129v-83z" horiz-adv-x="1000" />

<glyph glyph-name="calendar-clock" unicode="&#xe80a;" d="M625 308h63v-117l101-59-31-54-133 77v153z m167 209h-584v-459h195c-18 38-28 81-28 125a292 292 0 0 0 292 292c44 0 87-10 125-28v70z m-584-542a83 83 0 0 0-83 83v584c0 46 37 83 83 83h42v83h83v-83h334v83h83v-83h42a83 83 0 0 0 83-83v-254c52-53 83-125 83-205a292 292 0 0 0-291-291c-80 0-152 31-204 83h-255z m459 410a202 202 0 1 1 0-404 202 202 0 0 1 0 404z" horiz-adv-x="1000" />

<glyph glyph-name="calendar-multiple" unicode="&#xe80b;" d="M875 142v375h-583v-375h583z m0 583a83 83 0 0 0 83-83v-500a83 83 0 0 0-83-84h-583a83 83 0 0 0-84 84v500a83 83 0 0 0 84 83h41v83h84v-83h333v83h83v-83h42z m-750-750h583v-83h-583a83 83 0 0 0-83 83v500h83v-500z m667 250h-167v167h167v-167z" horiz-adv-x="1000" />

<glyph glyph-name="chart-line" unicode="&#xe80c;" d="M928 133h-770v516c0 15-13 27-29 27h-57c-16 0-28-12-28-27v-571c0-30 25-54 57-54h827c16 0 29 12 29 27v54c0 15-13 28-29 28z m-57 489h-211c-38 0-57-44-30-70l58-55-131-124-131 124a59 59 0 0 1-80 0l-123-117a26 26 0 0 1 0-38l40-38a30 30 0 0 1 41 0l82 78 131-125a59 59 0 0 1 80 0l172 163 57-55c27-25 73-7 73 29v201c0 15-12 27-28 27z" horiz-adv-x="1000" />

<glyph glyph-name="chart-pie-filled" unicode="&#xe80d;" d="M931 298h-400l267-257a28 28 0 0 1 37-1c65 59 110 139 123 229 2 15-11 29-27 29z m-27 105c-14 195-174 350-376 364a27 27 0 0 1-28-27v-364h377c16 0 28 13 27 27z m-485-105v386a27 27 0 0 1-30 26c-201-27-354-197-347-400 7-208 193-379 409-377a411 411 0 0 1 228 72 25 25 0 0 1 3 39l-263 254z" horiz-adv-x="1000" />

<glyph glyph-name="checklist" unicode="&#xe80e;" d="M231 58l-148 148 59 59 88-89 177 177 59-59-235-236z m0 334l-148 148 59 58 88-89 177 178 59-60-235-235z m311-250v83h375v-83h-375z m0 333v83h375v-83h-375z" horiz-adv-x="1000" />

<glyph glyph-name="chirpstack" unicode="&#xe80f;" d="M317 418c-17 1-33 2-50 1a219 219 0 0 1-60-14c-21-8-42-21-57-40-14-19-25-47-25-86 0-87 63-140 141-142 35-1 59 5 74 20 12 10 35 32 59 57a12514 12514 0 0 1 94 93l18 18a60 60 0 1 0 30-29l-18-19c-14-13-32-32-52-51-39-39-83-83-102-100-28-26-66-31-104-30-97 2-182 71-182 183 0 47 13 84 34 111 21 27 48 44 75 54a264 264 0 0 0 81 17c2 34 7 67 19 98 12 30 32 62 63 86 32 23 74 38 130 38 58 0 102-26 131-52 20-18 33-35 39-44 10-3 20-5 30-8 21-8 49-20 69-41a192 192 0 0 0 43-77c3-11 5-20 6-26a176 176 0 0 0 45-29c29-26 57-70 57-137 0-79-42-123-83-147-25-14-55-24-82-26h-154a60 60 0 1 0 0 41h152c21 0 45 11 63 21 32 18 63 50 63 111 0 54-22 86-44 105a136 136 0 0 1-30 21c-8 4-17 6-27 9a186 186 0 0 1-6 45 150 150 0 0 1-34 60c-13 14-33 24-51 30a242 242 0 0 1-42 10 206 206 0 0 1-41 51c-25 21-59 42-104 42-48 0-81-13-105-31-24-18-39-42-49-67a251 251 0 0 1-15-70c-2-19 0-37 1-56z m248-85a19 19 0 1 1 0 37 19 19 0 0 1 0-37z m-17-217a19 19 0 1 0-37 0 19 19 0 0 0 37 0z m52 352a21 21 0 0 1 19-22z m0 0a21 21 0 0 1 19-22h1c1 0 10-1 20-6 10-6 21-16 24-40a21 21 0 1 1 41 5c-4 39-25 60-45 71a90 90 0 0 1-39 12 21 21 0 0 1-21-20z m45 196a21 21 0 0 0 22 19c87-4 145-47 181-97 35-49 50-104 52-135a21 21 0 0 0-41-4c-2 25-15 73-45 115-30 41-77 76-149 80a21 21 0 0 0-20 22z" horiz-adv-x="1000" />

<glyph glyph-name="circle-notifications" unicode="&#xe810;" d="M500 79c17 0 32 6 44 18 13 13 19 27 19 45h-125c0-18 6-32 18-45 12-12 27-18 44-18z m-208 104h416v84h-41v108a215 215 0 0 1-33 116c-22 35-53 58-92 67v21a40 40 0 0 1-12 30 40 40 0 0 1-30 12 40 40 0 0 1-30-12 40 40 0 0 1-12-30v-21c-39-9-70-32-92-67a216 216 0 0 1-33-116v-108h-41v-84z m208-250a406 406 0 0 0-162 33 421 421 0 0 0-133 89c-37 38-67 82-89 133a407 407 0 0 0-33 162 406 406 0 0 0 33 163 421 421 0 0 0 89 132c38 37 82 67 133 89a407 407 0 0 0 162 33 406 406 0 0 0 163-33 421 421 0 0 0 132-89c37-38 67-82 89-132a405 405 0 0 0 33-163 406 406 0 0 0-33-162 421 421 0 0 0-89-133c-38-37-82-67-132-89a405 405 0 0 0-163-33z" horiz-adv-x="1000" />

<glyph glyph-name="cluster-solid" unicode="&#xe811;" d="M871 628h-107v-667h153v620a46 46 0 0 1-46 47z m-788-47v-620h153v667h-107a46 46 0 0 1-46-47z m593 158h-351a47 47 0 0 1-47-47v-731h444v731a47 47 0 0 1-46 47z m-176-661a50 50 0 1 0 50 50 50 50 0 0 0-50-50z m139 478h-278v44h278v-44z" horiz-adv-x="1000" />

<glyph glyph-name="cogs" unicode="&#xe812;" d="M663 81c56 0 102 46 102 102s-46 102-102 102c-57 0-103-45-103-102s46-102 103-102z m216 74l62-48c5-5 7-12 3-19l-58-101a15 15 0 0 0-18-6l-73 29c-15-12-31-21-49-29l-11-77c-1-7-7-12-14-12h-117c-7 0-13 5-14 12l-11 77c-18 8-34 17-49 29l-73-29c-7-3-14 0-18 6l-58 101a15 15 0 0 0 3 19l62 48-2 28 2 29-62 48a15 15 0 0 0-3 19l58 101c4 6 11 9 18 6l73-29c15 11 31 21 49 28l11 78c1 7 7 12 14 12h117c7 0 13-5 14-12l11-78c18-7 34-17 49-28l73 29c7 3 14 0 18-6l58-101c4-6 2-14-3-19l-62-48 2-29-2-28z m-600 359c36 0 65 29 65 65a66 66 0 1 1-65-65z m139 47l40-31c3-3 4-8 2-12l-38-65c-2-4-7-6-11-4l-47 19-31-19-8-49c0-5-4-8-9-8h-75c-5 0-8 3-9 8l-7 49-32 19-47-19c-4-2-8 0-11 4l-37 65c-3 4-2 9 2 12l39 31-1 18 1 19-39 30a10 10 0 0 0-2 12l37 65c3 5 7 6 11 5l47-19 32 18 7 50c1 4 4 8 9 8h75c5 0 9-4 9-8l8-50 31-18 47 19c4 1 9 0 11-5l38-65c2-4 1-9-2-12l-40-30 1-19-1-18z" horiz-adv-x="1000" />

<glyph glyph-name="commands-log" unicode="&#xe813;" d="M429 58h-221v459h584v-96a291 291 0 0 0 83-40v261a83 83 0 0 1-83 83h-42v83h-83v-83h-334v83h-83v-83h-42a83 83 0 0 1-83-83v-584a83 83 0 0 1 83-83h261a291 291 0 0 0-40 83z m-137 209h153a290 290 0 0 1-25-84h-128v84z m0 166h416a291 291 0 0 1-204-83h-212v83z m541-291l-208-125v250l208-125z" horiz-adv-x="1000" />

<glyph glyph-name="company" unicode="&#xe814;" d="M750 225h-83v-83h83m0 250h-83v-84h83m83-250h-333v84h83v83h-83v83h83v84h-83v83h333m-416 83h-84v84h84m0-250h-84v83h84m0-250h-84v83h84m0-250h-84v84h84m-167 416h-83v84h83m0-250h-83v83h83m0-250h-83v83h83m0-250h-83v84h83m250 416v167h-417v-750h834v583h-417z" horiz-adv-x="1000" />

<glyph glyph-name="contact-card-16-filled" unicode="&#xe815;" d="M63 553a109 109 0 0 0 109 110h656a109 109 0 0 0 110-110v-406a109 109 0 0 0-110-109h-656a109 109 0 0 0-109 109v406z m266-185a85 85 0 1 1 0 170 85 85 0 0 1 0-170z m-88-42a54 54 0 0 1-53-54 104 104 0 0 1 79-101l3-1c39-10 79-10 118 0l3 1a104 104 0 0 1 79 101 54 54 0 0 1-53 54h-176z m353 149a31 31 0 1 1 0-62h187a31 31 0 1 1 0 62h-187z m0-187a31 31 0 1 1 0-63h187a31 31 0 1 1 0 63h-187z" horiz-adv-x="1000" />

<glyph glyph-name="cpu-settings" unicode="&#xe816;" d="M375 475h250v-104a271 271 0 0 1-83-55v76h-84v-84h76a270 270 0 0 1-55-83h-104v250z m84-333h-167v416h416v-167a276 276 0 0 0 84-7v8h83v83h-83v83c0 46-38 84-84 84h-83v83h-83v-83h-84v83h-83v-83h-83c-46 0-84-38-84-84v-83h-83v-83h83v-84h-83v-83h83v-83c0-46 38-84 84-84h83v-83h83v83h8a272 272 0 0 0-7 84z m453-66l-34 18a140 140 0 0 1 0 54l34 18a9 9 0 0 1 4 11 187 187 0 0 1-43 71 10 10 0 0 1-12 2l-33-19a151 151 0 0 1-48 27v37a9 9 0 0 1-8 9 207 207 0 0 1-86 0 9 9 0 0 1-7-9v-37a157 157 0 0 1-48-27l-34 19a10 10 0 0 1-12-2 185 185 0 0 1-43-71 9 9 0 0 1 5-11l33-19a139 139 0 0 1 0-53l-33-18a9 9 0 0 1-5-11 187 187 0 0 1 43-71c3-4 8-4 12-2l34 19c14-12 30-21 48-27v-37c0-5 3-8 7-9a207 207 0 0 1 86 0 9 9 0 0 1 8 9v37c17 6 34 15 48 27l33-19c4-2 9-2 12 2a185 185 0 0 1 43 71 9 9 0 0 1-4 11z m-183-16c-35 0-63 28-63 61 0 33 28 60 63 60s63-27 63-60-28-61-63-61z" horiz-adv-x="1000" />

<glyph glyph-name="cpu" unicode="&#xe817;" d="M625 475h-250v-250h250v250z m-83-167h-84v84h84v-84z m333 84v83h-83v83c0 46-38 84-84 84h-83v83h-83v-83h-84v83h-83v-83h-83c-46 0-84-38-84-84v-83h-83v-83h83v-84h-83v-83h83v-83c0-46 38-84 84-84h83v-83h83v83h84v-83h83v83h83c46 0 84 38 84 84v83h83v83h-83v84h83z m-167-250h-416v416h416v-416z" horiz-adv-x="1000" />

<glyph glyph-name="dashboard-rounded" unicode="&#xe818;" d="M542 517v166c0 12 4 22 12 30a40 40 0 0 0 29 12h250c12 0 22-4 30-12 8-8 12-18 12-30v-166a40 40 0 0 0-12-30 40 40 0 0 0-30-12h-250a40 40 0 0 0-29 12 40 40 0 0 0-12 30z m-417-167v333c0 12 4 22 12 30a40 40 0 0 0 30 12h250c12 0 21-4 29-12 8-8 12-18 12-30v-333a40 40 0 0 0-12-30 40 40 0 0 0-29-12h-250a40 40 0 0 0-30 12 40 40 0 0 0-12 30z m417-333v333c0 12 4 22 12 30a40 40 0 0 0 29 12h250c12 0 22-4 30-12 8-8 12-18 12-30v-333a40 40 0 0 0-12-30 40 40 0 0 0-30-12h-250a40 40 0 0 0-29 12 40 40 0 0 0-12 30z m-417 0v166c0 12 4 22 12 30a40 40 0 0 0 30 12h250c12 0 21-4 29-12 8-8 12-18 12-30v-166a40 40 0 0 0-12-30 40 40 0 0 0-29-12h-250a40 40 0 0 0-30 12 40 40 0 0 0-12 30z" horiz-adv-x="1000" />

<glyph glyph-name="data-object" unicode="&#xe819;" d="M583 17v83h125a40 40 0 0 1 30 12 40 40 0 0 1 12 30v83c0 26 8 50 23 72 15 21 35 37 60 46v14a124 124 0 0 0-60 46 121 121 0 0 0-23 72v83a40 40 0 0 1-12 30 41 41 0 0 1-30 12h-125v83h125c35 0 65-12 89-36s36-54 36-89v-83c0-12 4-22 12-30 8-8 18-12 30-12h42v-166h-42a40 40 0 0 1-30-12 40 40 0 0 1-12-30v-83c0-35-12-65-36-89a121 121 0 0 0-89-36h-125z m-291 0a121 121 0 0 0-89 36 121 121 0 0 0-36 89v83a40 40 0 0 1-12 30 40 40 0 0 1-30 12h-42v166h42a40 40 0 0 1 30 12 40 40 0 0 1 12 30v83c0 35 12 65 36 89a121 121 0 0 0 89 36h125v-83h-125a40 40 0 0 1-30-12 40 40 0 0 1-12-30v-83c0-26-8-50-23-72-15-21-35-37-60-46v-14c25-9 45-25 60-46 15-22 23-46 23-72v-83c0-12 4-22 12-30 8-8 18-12 30-12h125v-83h-125z" horiz-adv-x="1000" />

<glyph glyph-name="ethernet" unicode="&#xe81a;" d="M292 225h83v-125h83v125h84v-125h83v125h83v-125h84v375h-167v125h-250v-125h-167v-375h84v125z m-109 500h635a99 99 0 0 0 99-99v-594a99 99 0 0 0-99-99h-635a99 99 0 0 0-100 99v594c0 55 45 99 100 99z" horiz-adv-x="1000" />

<glyph glyph-name="event-note-outline" unicode="&#xe81b;" d="M208-67c-23 0-42 8-58 25a80 80 0 0 0-25 59v583c0 23 8 43 25 59a80 80 0 0 0 58 24h42v84h83v-84h334v84h83v-84h42c23 0 42-8 59-24 16-16 24-36 24-59v-583c0-23-8-43-24-59a80 80 0 0 0-59-25h-584z m0 84h584v416h-584v-416z m0 500h584v83h-584v-83z m84-250v83h416v-83h-416z m0-167v83h291v-83h-291z" horiz-adv-x="1000" />

<glyph glyph-name="event-note" unicode="&#xe81c;" d="M583 267h-291v-84h291m209-125h-584v459h584m0 208h-42v83h-83v-83h-334v83h-83v-83h-42a83 83 0 0 1-83-83v-584a83 83 0 0 1 83-83h584a83 83 0 0 1 83 83v584a83 83 0 0 1-83 83z m-84-292h-416v-83h416v83z" horiz-adv-x="1000" />

<glyph glyph-name="event" unicode="&#xe81d;" d="M604 100c-29 0-54 10-74 30-20 20-30 45-30 74s10 54 30 74c20 20 45 30 74 30s54-10 74-30c20-20 30-45 30-74s-10-54-30-74c-20-20-45-30-74-30z m-396-167c-23 0-42 8-58 25a80 80 0 0 0-25 59v583c0 23 8 43 25 59a80 80 0 0 0 58 24h42v84h83v-84h334v84h83v-84h42c23 0 42-8 59-24 16-16 24-36 24-59v-583c0-23-8-43-24-59a80 80 0 0 0-59-25h-584z m0 84h584v416h-584v-416z" horiz-adv-x="1000" />

<glyph glyph-name="export-errors" unicode="&#xe81e;" d="M792 517l166-167-166-167v125h-167v84h167v125z m-167-42h83v125a83 83 0 0 1-83 83h-500a83 83 0 0 1-83-83v-500a83 83 0 0 1 83-83h500a83 83 0 0 1 83 83v125h-83v-125h-500v500h500v-125z m-249-208a16 16 0 0 1 12 5 16 16 0 0 1 4 11 16 16 0 0 1-5 12 16 16 0 0 1-11 5 16 16 0 0 1-12-5 16 16 0 0 1-5-12c0-4 2-8 5-11a16 16 0 0 1 12-5z m-17 66h33v100h-33v-100z m17-150a162 162 0 0 0-65 14 169 169 0 0 0-53 35 168 168 0 0 0-36 53 163 163 0 0 0-13 65c0 23 4 45 13 65 9 20 21 38 36 53 15 15 32 27 53 36a163 163 0 0 0 65 13 162 162 0 0 0 65-13c20-9 38-21 53-36s26-33 35-53a162 162 0 0 0 13-65c0-23-4-45-13-65-9-20-20-38-35-53s-33-27-53-35a162 162 0 0 0-65-14z" horiz-adv-x="1000" />

<glyph glyph-name="export-notes" unicode="&#xe81f;" d="M675-4l117 117v-96h41v166h-166v-41h96l-117-117 29-29z m75-104c-58 0-107 20-147 61-41 40-61 89-61 147 0 58 20 107 61 147 40 41 89 61 147 61 58 0 107-20 147-61 41-40 61-89 61-147 0-58-20-107-61-147-40-41-89-61-147-61z m-458 583h416v83h-416v-83z m195-500h-279c-23 0-42 8-58 24a80 80 0 0 0-25 59v584c0 23 8 42 25 59a80 80 0 0 0 58 24h584c23 0 42-8 59-24 16-17 24-36 24-59v-279a299 299 0 0 1-61 21 277 277 0 0 1-64 8c-8 0-15 0-21-1a135 135 0 0 1-21-2v3h-416v-84h255a276 276 0 0 1-60-83h-195v-83h170c-2-7-3-14-3-21a365 365 0 0 1-1-21c0-23 2-44 7-64 4-20 11-40 22-61z" horiz-adv-x="1000" />

<glyph glyph-name="export-setup" unicode="&#xe820;" d="M792 517l166-167-166-167v125h-167v84h167v125z m-167-42h83v125a83 83 0 0 1-83 83h-500a83 83 0 0 1-83-83v-500a83 83 0 0 1 83-83h500a83 83 0 0 1 83 83v125h-83v-125h-500v500h500v-125z m-87-165l-30 17a124 124 0 0 1 0 47l30 16a8 8 0 0 1 4 10 166 166 0 0 1-39 63 9 9 0 0 1-10 2l-30-17a134 134 0 0 1-42 24v33c0 4-3 7-7 8a184 184 0 0 1-77 0 8 8 0 0 1-6-8v-33c-16-6-30-14-43-24l-30 17a9 9 0 0 1-10-2c-18-18-31-39-39-63a8 8 0 0 1 4-10l30-16a124 124 0 0 1 0-48l-30-16a8 8 0 0 1-4-9 166 166 0 0 1 39-64 9 9 0 0 1 10-2l30 17c13-10 27-18 43-24v-33c0-3 2-7 6-8a184 184 0 0 1 77 0 8 8 0 0 1 7 8v33a138 138 0 0 1 42 24l30-17c4-1 8-1 11 2 17 18 30 40 38 64a8 8 0 0 1-4 9z m-162-14c-31 0-57 25-57 54 0 30 26 54 57 54 31 0 56-24 56-54 0-29-25-54-56-54z" horiz-adv-x="1000" />

<glyph glyph-name="export" unicode="&#xe821;" d="M958 350l-166 167v-125h-375v-84h375v-125m-750-83v500a83 83 0 0 0 83 83h500a83 83 0 0 0 83-83v-125h-83v125h-500v-500h500v125h83v-125a83 83 0 0 0-83-83h-500a83 83 0 0 0-83 83z" horiz-adv-x="1000" />

<glyph glyph-name="file-report-outline" unicode="&#xe822;" d="M583 767h-333c-46 0-83-38-83-84v-666c0-46 37-84 83-84h500c46 0 83 38 83 84v500l-250 250z m167-750h-500v666h292v-208h208v-458z m-375 291v-250h-83v250h83z m250-83v-167h83v167h-83z m-167 167v-334h84v334h-84z" horiz-adv-x="1000" />

<glyph glyph-name="file-report" unicode="&#xe823;" d="M542 475h229l-229 229v-229z m-292 292h333l250-250v-500a83 83 0 0 0-83-84h-500a83 83 0 0 0-83 84v666c0 47 37 84 83 84z m42-750h83v250h-83v-250z m166 0h84v333h-84v-333z m167 0h83v166h-83v-166z" horiz-adv-x="1000" />

<glyph glyph-name="file-tree" unicode="&#xe824;" d="M125 725h250v-167h-250v167z m500-292h250v-166h-250v166z m0-291h250v-167h-250v167z m-83 166h-250v-208h250v-83h-334v458h84v-83h250v-84z" horiz-adv-x="1000" />

<glyph glyph-name="globe" unicode="&#xe825;" d="M664 527c-27 166-90 281-164 281s-137-115-163-281h327z m-341-177c0-41 2-80 6-118h342a1158 1158 0 0 1 0 236h-342a1160 1160 0 0 1-6-118z m600 177a459 459 0 0 1-292 262c45-62 76-156 92-262h200z m-554 262a459 459 0 0 1-292-262h200c16 106 47 200 92 262z m574-321h-212c4-38 6-78 6-118 0-40-2-79-6-118h212c10 38 15 77 15 118 0 41-5 80-15 118z m-679-118c0 40 2 80 6 118h-212a462 462 0 0 1-16-118c0-41 6-80 16-118h211a1251 1251 0 0 0-5 118z m73-177c26-165 90-281 163-281s137 116 164 281h-327z m294-262a460 460 0 0 1 292 262h-200c-16-106-47-200-92-262z m-554 262a459 459 0 0 1 292-262c-45 62-76 156-92 262h-200z" horiz-adv-x="1000" />

<glyph glyph-name="home-iot-device" unicode="&#xe826;" d="M209 433h42v146a20 20 0 0 1-6 15 20 20 0 0 1-15 6 20 20 0 0 1-15-6 20 20 0 0 1-6-15l0-146z m21-416c-52 0-96 18-133 54s-54 80-54 133c0 34 7 63 23 90 15 26 35 48 60 64v221c0 29 10 54 30 74 20 20 45 30 74 30s54-10 74-30c20-20 30-45 30-74v-221c25-16 46-38 61-64s23-56 23-90c0-52-18-96-55-133s-81-54-133-54z m341 208a269 269 0 0 0-81 89c-21 36-32 76-32 119 0 70 25 129 73 177 49 49 108 73 177 73 70 0 129-24 177-73 49-48 73-107 73-177 0-43-10-83-31-119a269 269 0 0 0-81-89h-275z m137-208c-16 0-31 6-43 18-13 13-19 28-19 44h125c0-16-6-31-19-44-12-12-27-18-44-18z m-125 83v83h250v-83h-250z" horiz-adv-x="1000" />

<glyph glyph-name="image-multiple" unicode="&#xe827;" d="M917 183v500a83 83 0 0 1-84 84h-500a83 83 0 0 1-83-84v-500a83 83 0 0 1 83-83h500a83 83 0 0 1 84 83z m-459 167l85-113 124 155 166-209h-500m-250 417v-583a83 83 0 0 1 84-84h583v84h-583v583" horiz-adv-x="1000" />

<glyph glyph-name="import" unicode="&#xe828;" d="M583 350l-166 167v-125h-334v-84h334v-125m416-83v500a83 83 0 0 1-83 83h-500a83 83 0 0 1-83-83v-125h83v125h500v-500h-500v125h-83v-125a83 83 0 0 1 83-83h500a83 83 0 0 1 83 83z" horiz-adv-x="1000" />

<glyph glyph-name="iot-16-filled" unicode="&#xe829;" d="M750 631a94 94 0 0 0-109-92l-39-70a156 156 0 0 0 54-105l41-4a94 94 0 1 0-7-62l-41 4a157 157 0 0 0-71-87l17-52a94 94 0 1 0-59-20l-17 52a156 156 0 0 0-138 53l-70-39a94 94 0 1 0-30 55l70 39a156 156 0 0 0 19 133l-48 48a94 94 0 1 0 44 44l48-48a156 156 0 0 0 133 19l39 70a94 94 0 1 0 164 62z" horiz-adv-x="1000" />

<glyph glyph-name="list-status" unicode="&#xe82a;" d="M688 392l-146 146 58 58 88-88 175 175 58-58-233-233z m-230 166h-375v-83h375v83z m417-266l-58 58-109-108-108 108-58-58 108-109-108-108 58-58 108 108 109-108 58 58-108 108 108 109z m-417-67h-375v-83h375v83z" horiz-adv-x="1000" />

<glyph glyph-name="list" unicode="&#xe82b;" d="M167 142a40 40 0 0 0-30 12 40 40 0 0 0-12 29c0 12 4 22 12 30a40 40 0 0 0 30 12c12 0 21-4 29-12 8-8 12-18 12-30a40 40 0 0 0-12-29 40 40 0 0 0-29-12z m0 166a40 40 0 0 0-30 12 40 40 0 0 0-12 30c0 12 4 22 12 30a40 40 0 0 0 30 12c12 0 21-4 29-12 8-8 12-18 12-30a40 40 0 0 0-12-30 40 40 0 0 0-29-12z m0 167a40 40 0 0 0-30 12 40 40 0 0 0-12 30c0 12 4 21 12 29a40 40 0 0 0 30 12c12 0 21-4 29-12 8-8 12-18 12-29a40 40 0 0 0-12-30 40 40 0 0 0-29-12z m125-333v83h583v-83h-583z m0 166v84h583v-84h-583z m0 167v83h583v-83h-583z" horiz-adv-x="1000" />

<glyph glyph-name="math-log" unicode="&#xe82c;" d="M750 558c-46 0-83-37-83-83v-250c0-46 37-83 83-83h83c46 0 84 37 84 83v167h-84v-167h-83v250h167v83h-167z m-667 0v-416h250v83h-166v333h-84z m375 0c-45 0-83-37-83-83v-250c0-46 38-83 83-83h84c46 0 83 37 83 83v250c0 46-37 83-83 83h-84z m0-83h84v-250h-84v250z" horiz-adv-x="1000" />

<glyph glyph-name="multimedia" unicode="&#xe82d;" d="M375 308v334c0 46 38 83 83 83h375c46 0 84-37 84-83v-250h-143l-54 72a6 6 0 0 1-7 2 6 6 0 0 1-3-2l-82-114c-3-2-8-3-10 0l-60 73a6 6 0 0 1-7 2 6 6 0 0 1-3-2l-88-111c-3-4 0-10 5-10h264v-77h-271c-46 0-83 37-83 83z m-125-375v42h-83v-42h-84v834h84v-42h83v42h100c-36-31-58-75-58-125v-334c0-92 74-166 166-166h196c-43-35-71-87-71-146 0-22 5-43 12-63h-345z m-83 625h83v84h-83v-84z m0-166h83v83h-83v-83z m0-167h83v83h-83v-83z m83-167v84h-83v-84h83z m708 250v-83h-83v-229a104 104 0 1 0-62 95v217h145z" horiz-adv-x="1000" />

<glyph glyph-name="notifications-log" unicode="&#xe82e;" d="M429 58h-221v459h584v-96a291 291 0 0 0 83-40v261a83 83 0 0 1-83 83h-42v83h-83v-83h-334v83h-83v-83h-42a83 83 0 0 1-83-83v-584a83 83 0 0 1 83-83h261a291 291 0 0 0-40 83z m-137 209h153a290 290 0 0 1-25-84h-128v84z m0 166h416a291 291 0 0 1-204-83h-212v83z m464-448c0-28-21-52-48-52-26 0-47 24-47 52h95z m110 73l3-3a27 27 0 0 0 6-17c0-14-10-26-24-26h-285c-15 0-24 12-24 26 0 6 2 12 6 17l3 3c15 18 38 45 38 123 0 63 41 114 96 126v17c0 14 10 26 23 26 14 0 24-12 24-26v-17c55-12 95-63 95-126 0-78 24-105 39-123z" horiz-adv-x="1000" />

<glyph glyph-name="office-building-cog" unicode="&#xe82f;" d="M667 308a11 11 0 0 1-11-8l-8-55c-13-6-25-12-35-20l-52 21c-5 0-10 0-13-6l-42-72c-2-4-1-10 3-13l44-34c-2-14-2-28 0-42l-44-34a11 11 0 0 1-3-13l42-72c2-6 8-6 13-6l52 21c10-8 22-15 35-20l8-55c1-5 5-8 11-8h83c5 0 9 3 10 8l8 55c12 6 24 12 35 20l51-21c6 0 11 0 14 6l42 72a11 11 0 0 1-3 13l-44 34c0 7 1 14 1 21 0 7 0 14-1 21l44 34a11 11 0 0 1 2 13l-41 72c-3 6-8 6-14 6l-51-21c-11 8-23 15-35 20l-8 55a10 10 0 0 1-10 8h-83z m41-145c35 0 63-28 63-63s-28-62-63-62c-35 0-62 27-62 62s28 63 62 63z m-41 225v337h-584v-750h250v146h85c10 137 114 248 249 267z m-417-330h-83v84h83v-84z m0 167h-83v83h83v-83z m0 167h-83v83h83v-83z m0 166h-83v84h83v-84z m250 84h83v-84h-83v84z m0-167h83v-83h-83v83z m-83-250h-84v83h84v-83z m0 167h-84v83h84v-83z m-84 166v84h84v-84h-84z" horiz-adv-x="1000" />

<glyph glyph-name="office-building-marker" unicode="&#xe830;" d="M633-25c-45 65-91 152-91 229 0 76 40 146 100 188h-17v83h83v-51c21 6 42 9 63 9 7 0 14 0 21-1v293h-584v-750h250v146h84v-146h91z m-8 667h83v-84h-83v84z m-250-584h-83v84h83v-84z m0 167h-83v83h83v-83z m0 167h-83v83h83v-83z m0 166h-83v84h83v-84z m83 84h84v-84h-84v84z m0-167h84v-83h-84v83z m0-250v83h84v-83h-84z m313 125c-79 0-146-67-146-146 0-109 146-271 146-271s146 162 146 271c0 79-67 146-146 146z m0-200c-29 0-50 25-50 50 0 29 25 50 50 50s50-25 50-50c4-25-21-50-50-50z" horiz-adv-x="1000" />

<glyph glyph-name="parameter" unicode="&#xe831;" d="M875 444v156a63 63 0 0 1-62 63h-94v-63h94v-156a124 124 0 0 1 43-94 124 124 0 0 1-43-94v-156h-94v-62h94a63 63 0 0 1 62 62v156a63 63 0 0 0 63 63v62a63 63 0 0 0-63 63z m-344 125l-26-94h62l27 94h62l-26-94h58v-62h-76l-36-125h80v-63h-98l-27-94h-62l27 94h-63l-27-94h-62l27 94h-58v63h75l36 125h-80v62h98l27 94h62z m18-156h-62l-36-125h62l36 125z m-361 31v156h93v63h-93a63 63 0 0 1-63-63v-156a63 63 0 0 0-62-63v-62a63 63 0 0 0 62-63v-156a63 63 0 0 1 63-62h93v62h-93v156a124 124 0 0 1-44 94 124 124 0 0 1 44 94z" horiz-adv-x="1000" />

<glyph glyph-name="pin-off" unicode="&#xe832;" d="M83 630l54 53 696-696-53-54-247 247v-247h-66v250h-217v84l83 83v30l-250 250z m584-280l83-83v-84h-7l-410 410v90h-41v84h416v-84h-41v-333z" horiz-adv-x="1000" />

<glyph glyph-name="pin" unicode="&#xe833;" d="M667 350v333h41v84h-416v-84h41v-333l-83-83v-84h217v-250h66v250h217v84l-83 83z" horiz-adv-x="1000" />

<glyph glyph-name="problem" unicode="&#xe834;" d="M292 183a40 40 0 0 1 29 12 40 40 0 0 1 12 30 40 40 0 0 1-12 30 40 40 0 0 1-29 12 40 40 0 0 1-30-12 40 40 0 0 1-12-30c0-12 4-22 12-30 8-8 18-12 30-12z m-42 125h83v209h-83v-209z m167-83h333v83h-333v-83z m0 167h333v83h-333v-83z m-250-375c-23 0-43 8-59 24a80 80 0 0 0-25 59v500c0 23 9 43 25 59a80 80 0 0 0 59 24h666c23 0 43-8 59-24 17-16 25-36 25-59v-500c0-23-8-42-25-59a80 80 0 0 0-59-24h-666z" horiz-adv-x="1000" />

<glyph glyph-name="quick-reference-all" unicode="&#xe835;" d="M688 58c29 0 53 10 74 31 20 20 30 44 30 74s-10 53-30 74c-21 20-45 30-74 30s-54-10-74-30c-21-21-31-45-31-74s10-54 31-74c20-21 44-31 74-31z m212-166l-112 111a190 190 0 0 0-100-28c-53 0-97 18-133 55s-55 80-55 133c0 52 18 96 55 132s81 55 133 55c52 0 96-18 132-55s55-80 55-132c0-19-3-37-8-54a203 203 0 0 0-21-47l112-112-58-58z m-692 41c-23 0-42 8-58 25a80 80 0 0 0-25 59v666c0 23 8 43 25 59a80 80 0 0 0 58 25h334l250-250v-104a270 270 0 0 1-104 20 271 271 0 0 1-109-21 254 254 0 0 1-87-62h-200v-83h146a242 242 0 0 1-13-41c-4-14-6-28-7-43h-126v-83h132a264 264 0 0 1 42-95 248 248 0 0 1 77-72h-335z m292 542h208l-208 208v-208z" horiz-adv-x="1000" />

<glyph glyph-name="report-finance" unicode="&#xe836;" d="M250 163l-125-123v352h125m208-153l-65 56-60-55v318h125m209-250l-125-125v542h125m117-409l-76 76h209v-209l-75 75-300-298-145 126-157-153h-115l270 265 147-125" horiz-adv-x="1000" />

<glyph glyph-name="report-pie" unicode="&#xe837;" d="M458 767v-834c-212 21-375 200-375 417s163 396 375 417z m84 0v-375h375c-21 200-175 354-375 375z m0-459v-375c196 21 354 175 375 375h-375z" horiz-adv-x="1000" />

<glyph glyph-name="router" unicode="&#xe838;" d="M208-25c-23 0-42 8-58 24a80 80 0 0 0-25 59v167c0 23 8 43 25 59a80 80 0 0 0 58 24h417v167h83v-167h84c23 0 42-8 59-24 16-16 24-36 24-59v-167c0-23-8-42-24-59a80 80 0 0 0-59-24h-584z m125 167a40 40 0 0 1-12 29 40 40 0 0 1-29 12 40 40 0 0 1-30-12 40 40 0 0 1-12-29c0-12 4-22 12-30 8-8 18-12 30-12a40 40 0 0 1 29 12 40 40 0 0 1 12 30z m146 0a40 40 0 0 1-12 29 40 40 0 0 1-29 12 40 40 0 0 1-30-12 40 40 0 0 1-12-29c0-12 4-22 12-30 8-8 18-12 30-12a40 40 0 0 1 29 12 40 40 0 0 1 12 30z m104-42a40 40 0 0 1 30 12 40 40 0 0 1 12 30 40 40 0 0 1-12 29 40 40 0 0 1-30 12 40 40 0 0 1-29-12 40 40 0 0 1-12-29c0-12 4-22 12-30 8-8 18-12 29-12z m11 406l-61 61c18 16 39 30 61 39a180 180 0 0 0 73 15c26 0 50-5 73-15 22-9 42-23 60-39l-60-61a112 112 0 0 1-33 23 95 95 0 0 1-40 9c-15 0-28-3-40-9a111 111 0 0 1-33-23z m-104 104l-59 59a338 338 0 0 0 107 72c40 17 83 26 129 26s89-9 129-26a338 338 0 0 0 106-72l-58-59a250 250 0 0 1-80 54 246 246 0 0 1-97 19 246 246 0 0 1-98-19 251 251 0 0 1-79-54z" horiz-adv-x="1000" />

<glyph glyph-name="selection-marker" unicode="&#xe839;" d="M83 683a83 83 0 0 0 84 84h125v-84h-125v-125h-84v125z m834 0v-125h-84v125h-125v84h125a83 83 0 0 0 84-84z m-834-666v125h84v-125h125v-84h-125a83 83 0 0 0-84 84z m334 750h166v-84h-166v84z m0-750h166v-84h-166v84z m-334 416h84v-166h-84v166z m688-125c79 0 146-66 146-145 0-109-146-271-146-271s-146 162-146 271c0 79 67 145 146 145z m0-200c29 0 54 25 50 50 0 25-25 50-50 50s-50-20-50-50c0-25 21-50 50-50z m62 325h84v-97c-24 21-53 37-84 46v51z" horiz-adv-x="1000" />

<glyph glyph-name="server-network" unicode="&#xe83a;" d="M542 58h41a42 42 0 0 0 42-41h292v-84h-292a42 42 0 0 0-42-41h-166a42 42 0 0 0-42 41h-292v84h292a42 42 0 0 0 42 41h41v84h-291a42 42 0 0 0-42 41v167a42 42 0 0 0 42 42h666a42 42 0 0 0 42-42v-167a42 42 0 0 0-42-41h-291v-84z m-375 667h666a42 42 0 0 0 42-42v-166a42 42 0 0 0-42-42h-666a42 42 0 0 0-42 42v166a42 42 0 0 0 42 42z m208-167h42v84h-42v-84z m0-333h42v83h-42v-83z m-167 417v-84h84v84h-84z m0-334v-83h84v83h-84z" horiz-adv-x="1000" />

<glyph glyph-name="settings-etl" unicode="&#xe83b;" d="M864 285l83-45a22 22 0 0 0 11-26 450 450 0 0 0-12-31h-446a42 42 0 0 1-42-41v-209a42 42 0 0 1 42-41 504 504 0 0 0-105 11 22 22 0 0 0-18 21v91a369 369 0 0 0-118 65l-82-45a24 24 0 0 0-29 4 456 456 0 0 0-105 175 22 22 0 0 0 10 26l83 45a341 341 0 0 0 0 130l-83 45a22 22 0 0 0-10 26 453 453 0 0 0 105 175 24 24 0 0 0 29 4l82-45a380 380 0 0 0 117 65v91c0 10 8 19 19 21a507 507 0 0 0 210 0c11-2 19-11 19-21v-91a369 369 0 0 0 117-65l82 46a24 24 0 0 0 29-5 456 456 0 0 0 105-175 22 22 0 0 0-10-25l-83-46a340 340 0 0 0 0-130z m-518 65c0-81 69-148 154-148 85 0 154 67 154 148 0 82-69 148-154 148-85 0-154-66-154-148z m273-417h-119v209h119v-36h-75v-46h70v-36h-70v-54h75v-37z m123 0h-43v172h-57v37h157v-37h-57v-172z m89 0v209h43v-172h84v-37h-127z" horiz-adv-x="1000" />

<glyph glyph-name="setvalue-log" unicode="&#xe83c;" d="M429 58h-221v459h584v-96a291 291 0 0 0 83-40v261a83 83 0 0 1-83 83h-42v83h-83v-83h-334v83h-83v-83h-42a83 83 0 0 1-83-83v-584a83 83 0 0 1 83-83h261a291 291 0 0 0-40 83z m-137 209h153a290 290 0 0 1-25-84h-128v84z m0 166h416a291 291 0 0 1-204-83h-212v83z m208-291l161-167 256 266-64 67-193-200-96 100-64-66z" horiz-adv-x="1000" />

<glyph glyph-name="store" unicode="&#xe83d;" d="M500 100h-250v167h250m375 0v83l-42 208h-666l-42-208v-83h42v-250h416v250h167v-250h83v250m0 416h-666v-83h666v83z" horiz-adv-x="1000" />

<glyph glyph-name="system-log" unicode="&#xe83e;" d="M429 58h-221v459h584v-96a291 291 0 0 0 83-40v261a83 83 0 0 1-83 83h-42v83h-83v-83h-334v83h-83v-83h-42a83 83 0 0 1-83-83v-584a83 83 0 0 1 83-83h261a291 291 0 0 0-40 83z m-137 209h153a290 290 0 0 1-25-84h-128v84z m0 166h416a291 291 0 0 1-204-83h-212v83z m441-258l138-139c6-5 6-15-2-21l-35-35a14 14 0 0 0-21 0l-137 138a97 97 0 0 0-105 23c-29 31-38 76-20 113l67-66 45 46-65 65a99 99 0 0 0 112-20c29-28 37-69 23-104z" horiz-adv-x="1000" />

<glyph glyph-name="tag" unicode="&#xe83f;" d="M250 17l42 166h-146l21 84h146l41 166h-166l20 84h167l42 166h83l-42-166h167l42 166h83l-42-166h146l-21-84h-145l-42-166h167l-21-84h-167l-42-166h-83l42 166h-167l-42-166h-83z m146 250h167l41 166h-166l-42-166z" horiz-adv-x="1000" />

<glyph glyph-name="temperature-celsius" unicode="&#xe840;" d="M688 642c64 0 125-20 174-54l-48-120a186 186 0 0 1-126 49c-105 0-188-84-188-188s83-187 188-187c42 0 82 14 113 38l48-119a311 311 0 0 0-161-44 313 313 0 0 0 0 625z m-438 83a125 125 0 1 0 0-250 125 125 0 0 0 0 250z m0-83a42 42 0 1 1 0-84 42 42 0 0 1 0 84z" horiz-adv-x="1000" />

<glyph glyph-name="topology-star-3" unicode="&#xe841;" d="M250 350a83 83 0 1 1-167 0 83 83 0 0 1 167 0z m0 0h167m166 0a83 83 0 0 1-166 0m166 0a83 83 0 0 0-166 0m166 0h167m0 0a83 83 0 1 0 167 0 83 83 0 0 0-167 0z m-125 208l-83-125m-167 125l83-125m0-166l-83-125m167 125l83-125m-208-84a83 83 0 1 1-167 0 83 83 0 0 1 167 0z m333 584a83 83 0 1 1-167 0 83 83 0 0 1 167 0z m-333 0a83 83 0 1 1-167 0 83 83 0 0 1 167 0z m333-584a83 83 0 1 1-167 0 83 83 0 0 1 167 0z" horiz-adv-x="1000" />

<glyph glyph-name="tune" unicode="&#xe842;" d="M125 142v-84h250v84h-250z m0 500v-84h417v84h-417z m417-667v83h333v84h-333v83h-84v-250h84z m-250 500v-83h-167v-84h167v-83h83v250h-83z m583-167v84h-417v-84h417z m-250 167h83v83h167v84h-167v83h-83v-250z" horiz-adv-x="1000" />

<glyph glyph-name="university" unicode="&#xe843;" d="M958 612v-33a17 17 0 0 0-4-11 15 15 0 0 0-11-5h-46v-25c0-13-10-24-23-24h-748c-13 0-23 11-23 24v25h-46a15 15 0 0 0-11 5 17 17 0 0 0-4 11v33c0 3 1 6 2 9a16 16 0 0 0 7 6l443 180c4 2 8 2 12 0l443-180c3-1 5-3 7-6 1-3 2-6 2-9z m-45-622h-825c-26 0-46-22-46-49v-33c0-4 1-9 4-12a15 15 0 0 1 11-4h886c4 0 8 1 11 4a17 17 0 0 1 4 12v33c0 27-20 49-45 49z m-718 491v-393h-69c-13 0-23-11-23-24v-41h794v41c0 13-10 24-23 24h-68v393h-123v-393h-122v393h-122v-393h-122v393h-122z" horiz-adv-x="1000" />

<glyph glyph-name="user-group" unicode="&#xe844;" d="M500 621a146 146 0 1 0 0-292 146 146 0 0 0 0 292z m-292-104c24 0 45-7 64-18-6-59 11-119 47-165a125 125 0 0 0-236 58 125 125 0 0 0 125 125z m584 0a125 125 0 0 0 0-250c-49 0-90 27-111 67a231 231 0 0 1 47 165c19 11 40 18 64 18z m-563-427c0 86 121 156 271 156s271-70 271-156v-73h-542v73z m-229-73v62c0 58 79 107 185 121-24-28-39-67-39-110v-73h-146z m1000 0h-146v73c0 43-15 82-39 110 106-14 185-63 185-121v-62z" horiz-adv-x="1000" />

<glyph glyph-name="user-service" unicode="&#xe845;" d="M83 17h459c-50 37-84 100-84 166 0 30 5 55 17 80-17 4-37 4-58 4-184 0-334-75-334-167v-83z m167 500c0 91 75 166 167 166s166-75 166-166-75-167-166-167-167 75-167 167z m628-339l34-19a9 9 0 0 0 4-10 185 185 0 0 0-43-72 10 10 0 0 0-12-2l-33 19a156 156 0 0 0-48-27v-37a9 9 0 0 0-8-9 207 207 0 0 0-86 0 9 9 0 0 0-7 9v37a151 151 0 0 0-48 27l-34-19a10 10 0 0 0-12 2 187 187 0 0 0-43 72 9 9 0 0 0 5 10l33 19a139 139 0 0 0 0 53l-33 18a9 9 0 0 0-5 11 185 185 0 0 0 43 71 10 10 0 0 0 12 2l34-18a156 156 0 0 0 48 26v37a9 9 0 0 0 7 9 207 207 0 0 0 86 0 9 9 0 0 0 8-9v-37a151 151 0 0 0 48-26l33 18a10 10 0 0 0 12-1c20-21 35-45 43-72a9 9 0 0 0-4-11l-34-18a140 140 0 0 0 0-53z m-212 26c0-33 28-60 63-60s63 27 63 60c0 34-28 61-63 61s-63-27-63-61z" horiz-adv-x="1000" />

<glyph glyph-name="users" unicode="&#xe846;" d="M667 142v-84h-584v84s0 166 292 166 292-166 292-166z m-146 396a146 146 0 1 1-292 0 146 146 0 0 1 292 0z m143-230a222 222 0 0 0 86-166v-84h167v84s0 151-253 166z m-39 375a141 141 0 0 1-80-24 208 208 0 0 0 0-243 141 141 0 0 1 80-24 146 146 0 1 1 0 291z" horiz-adv-x="1000" />

<glyph glyph-name="widgets-outline" unicode="&#xe847;" d="M696 663l117-117-117-117-117 117 117 117z m-321-21v-167h-167v167h167z m417-417v-167h-167v167h167z m-96 554l-238-233 238-238h-154v-333h333v333h-179l233 238-233 233z m-238-54h-333v-333h333v333z m-83-500v-167h-167v167h167z m83 83h-333v-333h333v333z" horiz-adv-x="1000" />

<glyph glyph-name="widgets" unicode="&#xe848;" d="M125 725h333v-181l236 236 236-236-236-236h181v-333h-333v333h152l-236 236v-152h-333v333z m0-417h333v-333h-333v333z" horiz-adv-x="1000" />
</font>
</defs>
</svg>
